<svg data-name="BP Logo" xmlns="http://www.w3.org/2000/svg" viewBox="0 0 283.48 283.48"><path d="M283.48 141.75a141.74 141.74 0 10-141.75 141.73 141.75 141.75 0 00141.75-141.73"/><path d="M159.28 88.77l-17.53-26.59-17.54 26.59zm-53.85 122.24l36.32-47.73 36.32 47.73-36.32-14.58zm36.32-63.85l17.61 18.46h58l-39.72-66h-24.32l-11.49 16.54-11.62-16.53h-24.32l-39.72 66h58zm-37.52-7.33l14.17-23.53 14.17 23.53zm46.69 0l14.17-23.53 14.17 23.53z" fill="#ff8c00"/><path d="M39.83 109.42c4.33.76 7.11 3.5 6.23 8.52l-3.56 20.2-25.67-4.52 3.42-19.45c.89-5 4.13-6 7.92-5.37a8.29 8.29 0 014.66 2.61 7.67 7.67 0 017-1.99zm-12 20.3L29.89 118c.27-1.51.51-2.9-2.17-3.38s-2.89.93-3.16 2.48l-2 11.73zm10.61-14.67c-2.72-.48-3 .91-3.23 2.42l-2.31 13.14 5.44.95 2.31-13.13c.27-1.52.52-2.91-2.2-3.38zm14.17-15.16l-2.3 5.29-23.92-10.41 2.3-5.29zm9.66-29l8.67 1.4-4.11 5.39-7.74-1.33-5.63 7.4 5.55 4.22-3.49 4.59-20.77-15.79 10.67-14c3.08-4.06 8.2-4.56 12.83-1 3.38 2.49 4.75 5.87 4 9.06zm-13.29 9.47l6.21-8.17c1-1.37 2.67-3.52-.44-5.89s-4.78-.25-5.83 1.13l-6.2 8.17zm54.75-31l-4.9 3.06-9.57-15.12 1.68 20.11-3.52 2.23L69.97 49.5l9.57 15.12-4.88 3.09-14-22.06 6.58-4.17 17.79 10.55-1.91-20.59 6.71-4.16zm12.37-3.8l-5.53 1.65-7.43-25 5.53-1.64zm34.95-28.73l1.08 26-7.85.32-16.08-18.92.8 19.56-5.76.24-1.07-26.09 7.81-.32 16.12 19-.81-19.6zm22.09 17l13.5 4.52-4.44 13.26-4-1.35 1.06-4c-2.86 1.88-6.62 2.51-11.15 1-7.84-2.62-11.13-8.76-8.39-17s9.07-11.12 17.82-8.19c8.52 2.84 11.48 8.12 9.76 14.39l-5.57-1.86c.33-2-.2-5.26-6-7.19-7.12-2.39-9.62 1.85-10.61 4.82s-1.57 8 5.52 10.38c5.29 1.77 8.31-.2 9.06-2l-7.93-2.65zm54 16.57l-15.42 21.06-4.66-3.41 6-8.25-14.73-10.87-6 8.24-4.65-3.41L203.1 32.7l4.66 3.41-6 8.24 14.74 10.8 6-8.24zm5.15 39.83l-7.46-11.29-6 1-3.5-5.29 28.16-4.72 4.3 6.5-15.4 24.06-3.51-5.32zm3-4.54l6.33-9.64-11.37 2zm6.32 52.71l-1.18-5.65 17.52-3.66-19.43-5.47-.85-4.08 15.61-12.79-17.52 3.66-1.18-5.65 25.55-5.34 1.59 7.62-16.11 13 20 5.42 1.59 7.63zM61.47 214.43c-4.76 3.35-9.82 2.64-12.75-1.53l-6.84-9.7-5.7 4-3.35-4.7 21.34-15 10.15 14.41c2.97 4.14 1.9 9.17-2.85 12.52zm-3.33-4.72c3.24-2.28 1.69-4.48.69-5.89l-5.91-8.39-6.43 4.53 5.91 8.39c.99 1.41 2.54 3.61 5.74 1.36zM97.6 230.4l-15 21.34-4.77-3.33 5.89-8.35-14.89-10.53-5.88 8.35-4.72-3.32 15-21.34 4.71 3.33-5.88 8.35 14.93 10.53 5.89-8.36zm.59 14.35c2.34-8.33 7.69-11.75 17.2-9.09s12.29 8.41 10 16.7-7.74 11.81-17.22 9.16-12.34-8.41-10-16.77zm21.64 6.08c1.43-5.1-.13-8.09-5.93-9.72s-8.68.09-10.12 5.22.14 8.18 5.91 9.79 8.67-.18 10.14-5.29zm20.38-5.67l.22 5.29 17.93-.75.21 4.84-17.94.75.22 5.29 17.98-.75.22 5.33-23.7 1-1.09-26.08 23.7-1 .22 5.32zm52.24-18.33l10 24.14-7.27 3-21.6-12.27 7.47 18.1-5.34 2.2-10-24.13 7.23-3 21.65 12.29-7.48-18.14zm27.26 11.48l-4.57 3.52-15.94-20.67 4.57-3.53zm8.39-26.69l-18 2.24 4.79-6.35 12.31-1.48-2-12.23 4.8-6.37 2.83 17.9 18-2.24-4.8 6.37-12.3 1.46 2 12.25-4.78 6.35zM30.15 158.18l-7.44 8.65 8.6 7.45 7.45-8.61zm214.58 7.44l7.45 8.61 8.65-7.4-7.45-8.6z" fill="#ff4b32"/></svg>