<svg data-name="LS Logo" xmlns="http://www.w3.org/2000/svg" viewBox="0 0 772.26 283.47"><path d="M727.44 91.3l-.15 159.09L760.83 277H637.28l29.82-25.58V91.3l-44.84 48.54v-69h150v68.82zm-146.42 47.63c-20.5 0-27.74-11.91-27.74-11.91l.11 149.98h56.31l-.12-149.89s-9.11 11.82-28.56 11.82zm-227.09-17.58h-56.32v155.74h56.32zm-56.31-50.51h56.31v38.59h-56.31zm207.11 212.63l-27.62-30.61v-40.29l-21.6-23.74-23.4 21.3v22.1l12.15 13.36-41.64 37.88-26.82-29.78V119.53L361.68 104l41.64-37.88 36.07 39.68 43.57-39.67 48.49 53.33-34.33 31.48 36.17 39.76h.1v40.66l13 14.23zm-72.62-102.93l43.12-39.25-23.49-25.82-19.63 17.87zm-296.49-7.09V70.84H0v67a17.89 17.89 0 004.69 12.08l65.9 72.17a17.93 17.93 0 014.68 12.08v23.17L0 174.9V277h135.62v-66.83a17.89 17.89 0 00-4.69-12.08l-66-72.27a17.94 17.94 0 01-4.69-12.12l.06-22.73zM262.69 70.84a23.84 23.84 0 0118.08 7.63 19.88 19.88 0 014.93 13.71c0 5.2 0 86-.05 89.75-.06 12.33-9.29 21.65-21.28 21.8s-48.31 0-60.52 0V277h-56.32V70.88zm-33.23 40.93h-25.61v51.11h25.61zM33.13 42.07V32H12.26V.61H0v41.46zM49.8 21.4c0 12.14 9.57 21.28 22.28 21.28s22.4-9.14 22.4-21.28S84.91 0 72.08 0 49.8 9.15 49.8 21.4zm12 0a10.34 10.34 0 1110.37 10.31 10.06 10.06 0 01-10.34-9.77v-.54zm86.37 20.67h10.66V.61h-12.25v22.87L126.79.61h-10.6v41.46h12.26v-22.8zm34.8 0h20.23c12.83 0 22.41-7.31 22.41-20.67S216.03.68 203.2.61h-20.23zm19.66-31.34c6.13 0 10.27 3.85 10.27 10.67S208.76 32 202.63 32h-7.41V10.73zm42.26 10.67c0 12.14 9.57 21.28 22.28 21.28s22.4-9.14 22.4-21.28S280 0 267.17 0s-22.28 9.15-22.28 21.4zm12 0a10.34 10.34 0 1110.37 10.31 10.06 10.06 0 01-10.34-9.77zm86.37 20.67h10.66V.61h-12.25v22.87L321.88.61h-10.6v41.46h12.26v-22.8zm267.87 54.65a30.14 30.14 0 10-30.14 30.14 30.13 30.13 0 0030.13-30.13z" fill="#00f"/></svg>