<svg data-name="MO Logo" xmlns="http://www.w3.org/2000/svg" viewBox="0 0 216.92 283.51"><path d="M23.8 235.72v20.9h-4.63v-13.84L14 256.62H9.71l-5.08-13.6v13.6H0v-20.9h6.2l5.67 15.16 5.67-15.16zm18.8 20.9l-1.91-5.24-8.73 5.24h-5.33l8.42-20.9h4.59l8.29 20.9zm-8.26-6.6l4.81-2.9-1.91-5.24zm34.89-14.3v20.9h-4.69l-9-14.06v14.06h-4.77v-20.9h5l8.71 13.56v-13.56zm8.44 10.45l3.73 6.13h10.08v4.32H78.35l-6.29-10.45 6.29-10.45h13.13v4.31H81.4zm36-10.45v20.9h-4.81v-9.68l-8.54 5.14v4.54h-4.84v-20.9h4.81v11.22l8.54-5.15v-6.07zm9.62 4.19v4.22h9.62v3.82h-9.62v4.47h11v4.2h-15.81v-20.9h15.81v4.19zm13.84 10h4.81c0 1.78 1.42 3.05 4.78 3.05 2.87 0 3.91-1.08 3.91-2.44 0-4.5-13.22.09-13.22-8.81 0-3.76 3.45-6.38 8.63-6.38 4.72 0 8.82 2.52 9.12 6.72h-4.81c-.33-1.58-1.6-2.62-4.4-2.62s-3.7.95-3.7 2.15c0 4.29 13.22-.34 13.22 8.94 0 4.47-3.67 6.57-8.94 6.57-5.76 0-9.43-2.61-9.43-7.22zm38.94-10h-6.9v16.71h-4.81v-16.71h-6.88v-4.19h18.61zm7.93 0v4.22h9.62v3.82H184v4.47h11v4.2h-15.84v-20.9h15.81v4.19zm28.48 10.57l3.73 6.17h-5.39l-3.7-6.17h-3.94v6.17h-4.81v-20.9h14.11l4.44 7.36zm-9.25-4.31h6.25l1.85-3.06-1.85-3.05h-6.3zm-181 26.51c0-6.63 4.93-10.94 11.22-10.94s11.22 4 11.18 10.94c0 6.47-5 10.82-11.18 10.82s-11.32-4.41-11.32-10.85zm17.6 0c0-3.55-2.41-6.69-6.38-6.69a6.63 6.63 0 000 13.25 6.31 6.31 0 006.29-6.31v-.28zm21.7 4.22l3.73 6.17h-5.4l-3.7-6.17h-4v6.17h-4.79v-20.9h14.11l4.43 7.36zm-9.25-4.31h6.2l1.85-3.06-1.85-3h-6.3zm17.37-10.42h4.83v20.9h-4.81zm29.3 9.43v8.2a12.49 12.49 0 01-9.31 3.7c-7.18 0-11.5-4.23-11.5-12.24l5.55-9.09h13.79v4.31H86.61l-3.67 6c0 4.23 2.75 6.72 6.72 6.72a7.44 7.44 0 004.47-1.38v-2.59h-4.87v-3.64zm4.82-9.43h4.71v20.9h-4.8zm28.09 0v20.9h-4.69l-9-14.06v14.06h-4.75v-20.9h5l8.69 13.56v-13.59zm18.8 20.9l-1.91-5.24-8.73 5.24h-5.33l8.42-20.9h4.59l8.29 20.9zm-8.26-6.6l4.81-2.9-1.91-5.24zm31.84 2.4v4.2h-15.52v-20.9h4.81v16.7zm1.7-2.55h4.81c0 1.78 1.41 3.05 4.77 3.05 2.87 0 3.92-1.08 3.92-2.44 0-4.5-13.23.09-13.23-8.81 0-3.76 3.46-6.38 8.63-6.38 4.72 0 8.82 2.52 9.13 6.72h-4.81c-.34-1.58-1.6-2.62-4.41-2.62s-3.7.95-3.7 2.15c0 4.29 13.23-.34 13.23 8.94 0 4.47-3.67 6.57-8.94 6.57-5.86 0-9.5-2.62-9.5-7.21zm24.94-223.04L108.48 0 15.99 53.28v106.55l92.49 53.27 92.44-53.27zm-92.4 138.11l-27.13-15.61 64.44-78-34.48 92zm-13.32-61.85l35.6-95 29 16.72zm13.32-107.83l2.89 1.67-76.55 92.67V64.13zM34.82 145.62l62.56-75.78-35.5 94.72-27.06-15.59zm147.23 3.35l-45.09 26 42.17-112.49 2.92 1.68z"/></svg>