<svg data-name="NS Logo" xmlns="http://www.w3.org/2000/svg" viewBox="0 0 255.82 283.49"><path d="M255.61 46.76h-11.33l11.53 13.11V79.1l-11.35 3.15V64.19l-15.31-17.43h-1.62v40.19l-11.35 3.15V0h39.63v46.76zm-28.08-11.4h16.93v-24h-16.93zm-19.17-21.94V0h-36.19v102.3l36.24-10v-14l-22.65 6.27v-32.7h22.65V38.43h-22.65v-25zm-91.11 104.11l15.62-4.33V64.73h30.67V0h-46.3zm15.62-102.1h15.05V49.3h-15.05zM0 71.87h32.12v48.4l-13.1 3.6V79.12h-19v70.93l51.12-14.18v-82.8H19.02V18.78h13.1v27h19V0H0zm91 34.88l-13.77 3.82V0h-17.7v133.54l49.1-13.67V0H90.96zm55.78 176.73h26.4v-13.47h-13v-44.75h13v-13.39h-13v-42.33l13-3.6v-13.73l-26.4 7.31zm-33.26 0h27.35v-64.71h-13.32v9.41h3.19v43.86h-6.87v-95.36l6.84-1.9v34.31h10.16v-47.93l-27.36 7.58zm142.29-96.61V129.3l-39.09 10.83v69.17h22.65v58.19h-6.21v-51.11h-16.44v67.08h39.09v-89.31h-22.65v-42l6.21-1.72v36.44zM14.87 245.95v30.92h-8.3v-71.56l8.3-2.29v31.71h6.63v-40.49L.04 200.18v83.28h21.42v-37.51zm26.5-10.34h-7.32v-44.86l-6.85 1.9v90.81h6.85v-41h7.32v41h6.84v-96.59l-6.84 1.9zm41 47.85h9.39v-42.29l6.52 6.84v35.45h9.39v-40.15l-8.8-10.11h8.85v-62.84l-25.3 7zm9.39-99.17l6.52-1.8v41.32h-6.52zm-37.87 1v98.2h7.54v-46.77h7.56v46.74h7.54V178.99zm15.1 43.92h-7.56v-38.34l7.56-2.09zm142.09-87.48l-32 8.87v132.86h13.42v-53.79l6.63 7.35v46.44h12v-52.59l-11.33-13.13h11.33zm-12 62.65h-6.63v-43.51l6.63-1.84z" fill="#fff"/><path d="M217.72 109.55a1.25 1.25 0 011.61.7 1.32 1.32 0 01.08.52 2.4 2.4 0 01-1.69 2.17l-16.51 4.58v-3.39l16.51-4.58m0-3.6l-20 5.59v17.56l3.53-1v-7.06l11.62-3.24 5.68 5.53 4.48-1.25-5.67-5.53.4-.11c4.12-1.1 5.25-3.81 5.25-6.71s-2.35-4.59-5.25-3.78zM85.79 146.14a1.25 1.25 0 011.61.7 1.32 1.32 0 01.08.52 2.41 2.41 0 01-1.69 2.16l-16.51 4.59v-3.39l16.51-4.58m0-3.61l-20 5.6v17.55l3.53-1v-7.07l11.55-3.22 5.68 5.52 4.47-1.25-5.66-5.52.4-.11c4.12-1.11 5.25-3.82 5.25-6.71s-2.35-4.59-5.25-3.79zm-36.53 13.71c3-.81 5.37.91 5.37 3.84a7.55 7.55 0 01-5.37 6.79l-7.68 2.12c-3 .81-5.38-.91-5.38-3.84a7.56 7.56 0 015.38-6.79l7.68-2.12m-7.68-1.43c-5.82 1.6-8.78 6-8.78 11.22 0 4.85 5 7.35 8.78 6.32l7.68-2.14c5.94-1.64 8.77-6 8.77-11.2 0-4.85-4.91-7.41-8.77-6.33zm125.41-31.2V127l21.77-6v3.51l-21.77 6.06v3.69l21.77-6v3.36l-25.3 7v-17.6l25.3-7v3.57zm-44 8.63l-25.22 7v3.53l10.85-3v14l3.53-1v-14l10.84-3zm29.37-8.14v7l-18.26 5.06v-7l-3.53 1v17.55l3.53-1v-7.06l18.26-5.05v7.05l3.53-1v-17.53zm99.93-27.69v14.37l-17.06-9.64-4.7 1.31v17.54l3.53-1v-13.77l16.54 9.21 5.22-1.45V95.43zM21.76 160.27v14.37l-17-9.64-4.71 1.31v17.56l3.54-1v-13.79l16.54 9.21 5.17-1.42v-17.58z" fill="#ff3241"/></svg>