<svg xmlns="http://www.w3.org/2000/svg" viewBox="0 0 212.64 283.47"><path d="M157.03 126.9c-2.7-4.7-8-5.22-14.31-5.87a17.38 17.38 0 00-2.34-5.39c-5.31-7.58-14.72-6.88-19-6.07-4.4-5-12-4.29-17.94-2.26.4-23.51-.6-38.26-7.22-44.44a12.59 12.59 0 00-10.25-3.11c-8 .79-10.38 7.3-11.52 12.13-1.49 6.36-1.77 15.1-2.17 27.2-.39 11.91-.88 26.67-2.76 44.34a28.75 28.75 0 00-10.13 20.97c-.21 9 4.16 17 12.35 22.73a34.63 34.63 0 009.49 22.14c12.2 12.43 32.39 10.62 33.35 10.58 11.34-.42 20.08-4.36 26-11.7 10.74-13.38 8.92-34.15 7.32-43.76 5.83-2.23 16.99-23.78 9.13-37.49zm-21.58-7.81c3.62 5.17 3.59 22.45-1.24 31.73-1.69 3.24-3.64 4.88-5.78 4.88-3.81 0-5.47-1.48-6.85-6.22 6.22-9.15 6.7-24.33 2.88-34.3 3.5-.37 8.26.01 10.99 3.91zm-18.16-4.92c4 6.3 4.77 19.08 1.4 27.85-1.26-2.14-5.17-7.39-16-7.73.06-2.11.47-16 .58-20.44 3.43-1.4 11.28-3.99 14.02.32zm-37-40.91c1.38-5.86 3.5-7.24 6.26-7.52 3.16-.31 4.68.72 5.54 1.53 6.41 6 5.73 28.9 4.78 60.62-.06 2.11-.13 4.29-.19 6.5a67.27 67.27 0 00-20.74 5.2c1.52-15.91 2-29.31 2.33-40.3.35-11.31.65-20.25 2-26zM135.8 204.4c-4.76 5.93-12 9.11-21.52 9.46-12.83.48-22.63-2.37-28.82-8.76a28.79 28.79 0 01-7.74-21.2s-12.89-6.26-12.4-19.34c.29-7.34 4.46-14.84 10.43-18.22 8.18-4.65 26.15-8.7 34.57-4.22a7.42 7.42 0 014.23 6.47c.46 5.91-3.21 10.09-6.83 12.74-3.9-7.62-11.66-9.54-17.69-8.68-7.45 1.05-12.86 5.81-12.86 11.32a8.21 8.21 0 004.6 7.44c5.22 2.83 14.4 2.16 22.47-1.27a55 55 0 01-.16 23.72l2.9.81 2.9.81a60.44 60.44 0 00-.13-28.24 24.62 24.62 0 009-9.77c4.66 5.83 12.34 4.14 13.62 3.4a10.55 10.55 0 009.57 5.21c3.86 23.64-3.68 35.32-6.14 38.32zm-33.3-40c-6.61 3.18-19.07 4.35-19.31-.38-.12-2.32 4.36-5.5 9.55-5.5a10.27 10.27 0 019.76 5.88zm47.89-12.17c-1.39 2.94-4.36 7.88-8.66 7.88a4.34 4.34 0 01-4.49-3 21.18 21.18 0 002.27-3.5c3.63-7 5.08-17.8 4.22-26.56 3.75 0 6.55 1.14 8.33 3.3 2.52 3.05 2.33 13.46-1.67 21.88zm42.42 4.27l6 1.21c-1.16 1.06-4.27 3.62-5.51 9.9-.56 2.83-.43 5.4.56 5.6s1.79-2.19 3.6-6.26c2.34-5.19 4.73-9.18 9-8.32 4.57.92 5.93 6.26 4.55 13.28-1 5.21-3 8.28-4.54 9.82l-6-1.22a21 21 0 005.24-10.3c.48-2.45.4-4.91-.54-5.1s-2.34 3.09-3.71 6.1c-2.66 5.82-5 9.65-9 8.85-4.26-.86-6-6.35-4.57-13.78s4.88-9.72 4.95-9.78zM43.65 246.75zm-9.26-34.21l4.34 4.09-5.68.89 3 12.21-7.21-9.55-1.94 5.86-2.19-7.28-5.62 2.35 4-6.63-5-3.06 5.3-2.02-1.87-12.3 5.92 9.3 4.19-5.43.29 6.89 7.36-1.86zm139.6-6.56l7.37 1.86.29-6.89 4.14 5.45 5.86-9.24-1.87 12.24 5.34 2-5 3.06 4 6.63-5.61-2.35-2.2 7.28-1.92-5.84-8 9.55 3.82-12.21-5.68-.89 4.34-4.09zM43.65 246.75zM23.84 132.93q-.28 4.08-.36 8.24L.11 151.58c-.08-2.22-.11-4.45-.11-6.68v-.57l17.52-7.48L.81 126.79c.22-2.37.47-4.74.77-7.08zm16.14-60.59a139.72 139.72 0 00-8.31 20.28l-21.85-8.6q1.05-3.13 2.2-6.21l16.29 6.47a131.18 131.18 0 016-14.14l.23-.48zm53.09-47a60.31 60.31 0 00-7.08 2.06L66.45 10.61q3.18-1.73 6.44-3.17l14.65 13 3.19-18.58q3.54-.69 7.12-1.07zM168.3 64.4q-1.71-2.82-3.54-5.48l19.8-12.52q1.8 2.66 3.49 5.42zm44.09 86.54l-5.93-.09s.29-11.94-.2-18.79l-3.24.07c.5 6.18.21 17.25.21 17.25l-5.06-.12s.24-10.09-.21-17l-3.24.07c.45 5.64.22 18.42.22 18.42l-5.78-.12a189.47 189.47 0 00-.89-24.41h23.9c.42 5.09.69 20.68.22 24.72zm-24.87-30.74a162.27 162.27 0 00-4.64-21.91l23.19-4.89q.85 3.17 1.6 6.38l-17.28 3.88a161.2 161.2 0 013.28 16.28zM51.21 54.4c-1.32 1.72-2.6 3.51-3.85 5.35L28.39 46.08c.2-.3 2.72-3.91 3.8-5.37zm4.57-5.53l-17-16.13q3.19-3.56 6.58-6.75l19.7 2.41-9-11.22c1.8-1.29 3.63-2.53 5.5-3.69L76.39 31.9a64.71 64.71 0 00-6.09 3.89L48 32.71l12.26 11.51c-1.57 1.48-3 3-4.48 4.66zm123.68 38.76a7.79 7.79 0 007.13 4.92 8.63 8.63 0 003-.69 6.6 6.6 0 004-4.7c5.56 1.16 8.73-2.74 8.35-5.72 0-1.14-1.11-3.53-1.51-4.52-4.95-12.09-7.37-16.3-7.37-16.3L171.7 70.4c3.43 5.5 7.53 16.72 7.76 17.24zm11.32-18.93c1.41 2.49 4.16 8.42 4.65 9.56a3 3 0 01.32 2.23 1.39 1.39 0 01-.82.72 2.31 2.31 0 01-.69.16c-.72 0-1.31-.53-1.91-1.8-1-2.07-3.31-7-4.63-9.48zm-8 3.61c1.25 2.33 4.65 9.17 5.11 10.55l.06.19c.53 1.58.69 2.24-.7 2.84a2.08 2.08 0 01-.73.19c-.68 0-1.17-.48-1.81-1.86s-3.5-7.7-5-10.52zM97.48 265.4c1.66.25 3.33.44 5 .55l-2.91 17.26q-3.06-.27-6.08-.78l-6.88-13.28-3.1 10.88c-1.69-.53-3.35-1.12-5-1.77l4.7-16.95a60 60 0 006.1 2.21l6.36 12.15zm63.08-28.76l12.29 12.47c-1.33 1.62-2.69 3.19-4.06 4.71l-14.5-1.16 7.46 8.21a94.323 94.323 0 01-4.06 3.51l-11.88-12.88c1.65-1.31 3.28-2.7 4.87-4.17l13.43.67-7-7.26c.64-.77 2.28-2.55 3.45-4.12zm-108.31.12c1.13 1.43 2.29 2.8 3.47 4.13l-8.33 8.37c2.18 2.62 7.5 7.8 7.56 7.85l.55.54-3.84 3.88a111.3 111.3 0 01-11.76-12.32zm-31-120.48c.68-4.06 1.5-8.1 2.44-12l4.7-1.34c.62-2.47 1.3-4.91 2-7.31l-25.78 6q-.87 3.86-1.57 7.8l21.2 17.54c.25-2.53.56-5 .91-7.51zm3.51 50.12c.85 5.73-2.2 14.39-9.1 15.48l-1.41.22c-6.91 1.08-12.33-6.23-13.18-12l-.17-1.18c-.86-5.77 2.18-14.49 9.08-15.58l1.42-.22c6.9-1.09 12.33 6.3 13.19 12.08zm-8.07-54l-6-5.08 7.42-1.75c-.53 2.19-1 4.48-1.42 6.83zm-9.56 55.63l.19 1.27c.4 2.74 3.28 7 5.94 6.63l1.52-.24c2.67-.42 4.16-5.44 3.75-8.18l-.14-1.28c-.41-2.75-3.3-7.19-6-6.77l-1.52.24c-2.68.42-4.15 5.55-3.74 8.29zm55.71 102.2c-3.77-2.16-6.18-7.53-3.6-11.81l.34-.56a7.6 7.6 0 014.41-3.53 10.5 10.5 0 017.71.56l.15.07 1.86 1.07c4.23 2.41 5.9 7.92 3.57 11.78l-.4.67c-2.33 3.87-8.09 5.14-12.32 2.73zm9.68-4.23l.41-.67c1-1.66-.06-4.1-1.77-5.07l-1.72-1c-1.89-.92-4.63-.65-5.44 1l-.41.66c-1 1.66.09 4.12 1.8 5.09l1.72 1c1.71.9 4.41.61 5.41-1.05zm71.87 7.62c-3.41 2.69-9.3 2.9-12.3-1.09l-.39-.52a7.65 7.65 0 01-1.62-5.41 10.53 10.53 0 013.4-6.94l.13-.11 1.68-1.33c3.83-3 9.56-2.5 12.27 1.1l.47.63c2.71 3.61 1.74 9.42-2.09 12.44zm-.29-10.57l-.47-.62c-1.17-1.55-3.82-1.48-5.37-.26l-1.58 1.23c-1.56 1.41-2.34 4.05-1.15 5.4l.47.63c1.16 1.55 3.85 1.45 5.39.23l1.55-1.22c1.55-1.22 2.29-3.83 1.13-5.39zm18.29-211.4a20.39 20.39 0 01-12-17.5 10.54 10.54 0 014-9.18c5.21-4 14.22-1.65 19.28 5 4 5.28 4.51 9.6 4.51 9.6l-5.79 4.39s-.47-6.35-3.46-10.26-7.84-5.55-10.54-3.48a5.44 5.44 0 00-1.87 4.83c.46 8.88 11.74 12 11.74 12zM122.93 26.2a56.35 56.35 0 00-6.39-1.61l7.11-22.47c2.75.63 5.48 1.39 8.18 2.3l7.45 20.26 7.21-13.58c1.42.78 2.84 1.59 4.25 2.46l1.09.7-10.74 20.91a72.1 72.1 0 00-6.21-3.85l-7.29-20.36zm-16.84 239.85l1.05 17.42a75.42 75.42 0 0013.15-1.46c3.42-.83 6.86-3.47 6.5-9.1a8 8 0 00-8.93-8.05 108.11 108.11 0 01-11.77 1.19zm6.39 12.18l-.5-7.84 4.73-.53h.77c2.59 0 3.69 1 3.93 3.46.28 3.11-2 4.1-4 4.38-1.61.19-3.85.42-4.93.53zm-2.29-254.29a42 42 0 00-6.73 0V.13a44.47 44.47 0 016.73 0z" fill="#0fa"/></svg>