<svg data-name="SB Logo" xmlns="http://www.w3.org/2000/svg" viewBox="0 0 246.87 283.48"><path d="M45.58 241.99c9.58 0 14.83-2.73 14.83-11.17s-5.25-11.16-14.83-11.16-14.83 2.72-14.83 11.16 5.31 11.17 14.83 11.17zm0-17.34c6.64 0 8.34 1.61 8.34 6.17s-1.7 6.14-8.34 6.14-8.28-1.61-8.28-6.14 1.73-6.17 8.28-6.17zm18.83 8.7v-13.06h6.48v13.28c0 2.6 1.31 3.31 6.27 3.31s6.95-.74 6.95-3.28v-13.31h6.2v13c0 7.91-4.71 8.68-14.39 8.68-8 0-11.48-1.4-11.48-8.62zm39.52-7.78H93.58v-5.27h26.89v5.27h-10.34v15.73h-6.2zm26.27 15.73H124v-21h6.2v7.66h14.61v-7.66h6.21v21h-6.21v-8.23H130.2zm116.62-21v21h-6.24v-4.73l-16.72-10.58v15.33h-6.21v-21h8.19l14.74 9.25v-9.27zm-125.24 26.95l-19.45 36.22h11.93l4.43-8.46h22.54l4.42 8.46h11.82l-19.46-36.22zm1.1 19.74l6.07-11.61h2l6.08 11.61zm65.23-19.74h11.88l-19 36.22h-12.93l-19.52-36.22h12.46l13.7 27.66zm58.9 36.22h-44.23v-36.22h44.29v8.32h-33.59v5.51h28.21v7.59h-28.21v5.56h33.54zm-65.23-42.16h-25.71v-21h25.71v4.84H162.1v3.19h16.36v4.41H162.1v3.22h19.48zm-90 29c4.33-1.5 8-4.62 8-11.15 0-7.23-5.08-11.89-15.69-11.89H52.37v36.21h10.72v-11.8h18c1.45 4.34 4.52 9.21 8.29 11.79h13.45c-6.08-4.35-9.72-8.75-11.25-13.18zm-28.5-14.47H83.8c2.41 0 4.45.86 4.45 3.64 0 4.07-2 4.29-4.39 4.29H63.09zm145.9-22.15a6.32 6.32 0 004.66-6.47c0-4.2-2.95-6.91-9.11-6.91h-18.31v21h6.22v-6.84h10.44a14.13 14.13 0 004.82 6.85h7.81c-3.52-2.52-5.63-5.08-6.52-7.65zm-16.53-8.4h12c1.4 0 2.58.49 2.58 2.11 0 2.36-1.18 2.49-2.54 2.49h-12zM43.17 265.36a9 9 0 004.51-7.62c0-6.21-3.43-10.49-14.61-10.49H.01v36.22h33.06c11.18 0 14.61-4.28 14.61-10.49a9 9 0 00-4.51-7.62zm-32.59-10.18h20.73c2.41 0 4.45.71 4.45 3 0 3.38-2 3.56-4.4 3.56H10.58zm0 13.67h20.73c2.41 0 4.45.72 4.45 3.07 0 3.44-2 3.62-4.4 3.62H10.58zm10.19-33.87c0-1.61-2.54-1.86-4.62-1.86h-5.3c-3.89 0-10.27-1.12-10.27-6.55 0-4.22 4.16-6.91 13.65-6.91 7.88 0 12.19 2 13.24 5.11l-5.49 1.93c-.4-1.59-3.91-2.52-7.72-2.52-4.56 0-7 .72-7 2.17 0 1.84 2.64 1.85 4.53 1.85h5.86c5.68 0 9.61 1.41 9.61 6.1s-4 7.66-13.58 7.66c-7 0-12.13-2-13.68-5.71l5.93-1.55c.68 1.21 3.22 2.57 8.25 2.57 4.22 0 6.58-.7 6.58-2.29zm226.05-129.83a5.12 5.12 0 00-2.77-4.56l-11.66-6 12-14.1a10.32 10.32 0 002.45-6.67V.01s-47 32.07-83.71 42.3c-30.92 9.08-39.1 4.07-39.1-6.68V16.86c0-3.23-.14-7.53-5.22-11.81-23.65-18.39-94 18.57-113.61 29.71a10.27 10.27 0 00-5.17 8.92v87.76a4.84 4.84 0 004.84 4.83 4.67 4.67 0 002.47-.68c15.61-9.37 53.13-30.56 82-36.15v22C51.93 129.13.01 163.57.01 163.57v39.44s47-32.06 83.71-42.3c30.92-9.08 39.1-4.07 39.1 6.68v18.78c0 3.22.14 7.52 5.22 11.81 23.65 18.39 94-18.57 113.61-29.71a10.29 10.29 0 005.17-8.93zm-124-55.84v20a13.43 13.43 0 00-3.84-4.17c-16.4-12.77-55.4 2.3-84.26 16.61v-23.3c18.24-8.82 40.49-17.92 58.54-20.21 21.56-3.89 27.94 4.13 29.28 9a9.05 9.05 0 01.28 2.07zm89.3 33.26c-28.88 14.76-67.84 30.38-84.25 17.61a11.85 11.85 0 01-3.25-3.69 6 6 0 01-.61-2.88v-19.3a13.43 13.43 0 003.84 4.17c16.41 12.77 55.37-3.46 84.25-18.71zm-88.11 71.07v-20.07a13.43 13.43 0 003.84 4.17c16.41 12.77 55.37-2.3 84.25-16.61v23.31c-18.23 8.84-40.52 17.93-58.52 20.23-21.56 3.88-27.94-4.14-29.28-9a9.1 9.1 0 01-.28-2z" fill="#28aa4b"/></svg>