<svg data-name="Layer 1" xmlns="http://www.w3.org/2000/svg" viewBox="0 0 264.48 337.04"><path d="M28.48 292.15H0v43.44h11.44l.07-33h8.76l1.94 4.78-9.61 9.85 9.45 18.37H34.6l-9.49-18.29 9.92-8.79.07-.08-6.59-16.2zm31.78 33.63a11.94 11.94 0 1111.49-12.37v.49a11.61 11.61 0 01-11.32 11.88zm0-35.12a23.19 23.19 0 1023.19 23.24 23.19 23.19 0 00-23.19-23.24zm49.23 11.24a11.78 11.78 0 0110 5.65l.54.88 8.88-7.27-.49-.68a23.19 23.19 0 100 26.7l.49-.68-8.88-7.27-.54.88a11.78 11.78 0 01-10 5.65 11.94 11.94 0 010-23.86zm59.7-9.77h-12.92l-13.2 18.95v-18.93h-11.12v43.44h11.12v-18l14.41 18h13.84l-17.28-21.69zm1.27 13.55a13.39 13.39 0 002.75 8.17 13.36 13.36 0 00-2.75 8.16 13.58 13.58 0 0013.55 13.56h14v-11h-13.82a2.66 2.66 0 110-5.32h10.32v-10.77h-10.32a2.66 2.66 0 010-5.32h13.85v-11h-14a13.6 13.6 0 00-13.58 13.54zm31.28-2.54h10v32.43h11.16v-32.41h10v-11h-31.16zm62.74 0v-11h-27.85v27.11h16.72v5.32h-16.72v11h27.85v-27.09h-16.72v-5.32zM82.09 266.08H71.75v16.72h-5.48v-16.72H55.9v-4.59h26.17zm11.65 6.43h9.74c1.64 0 4.2 0 4.2-3.2s-2.56-3.23-4.2-3.23h-9.74zm14.79 3.95l3.93 6.34H106l-3.43-5.7h-8.83v5.7h-5.48v-21.31H105c4.84 0 8.16 3.07 8.16 7.82a7.26 7.26 0 01-4.63 7.15zm16.65-10.62v4.32h17v4h-17v4.32h17v4.36H119.7v-21.35h22.52v4.35zm51-4.35v21.31h-7.46l-14.52-16v16h-5.48v-21.31h7.43l14.55 16v-16zm32.34 4.59h-10.31v16.72h-5.48v-16.72h-10.35v-4.59h26.18zm-61.62-46.6h72.2l-42.77-70.58 39.21-49-9-22.28-166.9 81.12v60.74h68.59v-63.39zm93.25 11.86h-99.79l-20.27-33.44v33.45h-92.3v-80l185.07-90 16.29 40.55-38.38 48zM39.65 108.39L182.14 11.9H39.65zm-11.86 22.3V0H188.4l6.78 17.35z"/><path fill="#f53c00" d="M66.38 119.68l151.34-74.91-8.54-21.02-143.15 95.07.35.86z"/></svg>